<svg xmlns="http://www.w3.org/2000/svg" id="Layer_1" viewBox="0 0 836.01 172.96"><defs><style>.cls-1{fill:#dc2327;}.cls-1,.cls-2{stroke-width:0px;}.cls-2{fill:#fff;}</style></defs><path class="cls-2" d="m486.32,76.77l12.95-38.29h10.59l12.95,38.29h-8.69l-2.57-7.81h-14.03l-2.57,7.81h-8.63Zm13.42-14.75h9.61l-5.86-18.09h2.16l-5.91,18.09Z"></path><path class="cls-2" d="m527.49,76.77v-28.07h7.2v6.84l-.77-1.13c.41-2.16,1.4-3.75,2.98-4.78,1.58-1.03,3.46-1.54,5.65-1.54,2.33,0,4.38.59,6.14,1.77,1.76,1.18,2.87,2.77,3.31,4.76l-2.21.21c.92-2.29,2.24-3.99,3.96-5.09,1.71-1.1,3.72-1.65,6.01-1.65,2.02,0,3.81.45,5.37,1.34,1.56.89,2.78,2.13,3.68,3.73.89,1.59,1.34,3.45,1.34,5.58v18.04h-7.71v-16.4c0-1.1-.2-2.04-.59-2.83-.4-.79-.95-1.4-1.67-1.85-.72-.44-1.59-.67-2.62-.67s-1.86.22-2.59.67c-.74.45-1.3,1.06-1.7,1.85s-.59,1.73-.59,2.83v16.4h-7.71v-16.4c0-1.1-.2-2.04-.59-2.83-.39-.79-.95-1.4-1.67-1.85-.72-.44-1.59-.67-2.62-.67s-1.86.22-2.6.67c-.74.45-1.3,1.06-1.7,1.85s-.59,1.73-.59,2.83v16.4h-7.71Z"></path><path class="cls-2" d="m590.05,77.39c-2.98,0-5.57-.66-7.76-1.98-2.19-1.32-3.89-3.09-5.09-5.32-1.2-2.23-1.8-4.69-1.8-7.4s.62-5.31,1.88-7.5c1.25-2.19,2.94-3.92,5.06-5.19,2.12-1.27,4.52-1.9,7.2-1.9,2.23,0,4.2.35,5.91,1.05,1.71.7,3.16,1.69,4.34,2.96s2.08,2.73,2.7,4.39c.62,1.66.93,3.47.93,5.42,0,.55-.03,1.09-.08,1.62-.05.53-.15.98-.28,1.36h-21.02v-5.65h16.65l-3.65,2.67c.34-1.47.33-2.78-.05-3.93-.38-1.15-1.04-2.06-1.98-2.73-.94-.67-2.1-1-3.47-1s-2.48.33-3.44.98c-.96.65-1.68,1.61-2.16,2.88-.48,1.27-.67,2.81-.56,4.63-.14,1.58.05,2.96.56,4.16.51,1.2,1.3,2.13,2.36,2.8,1.06.67,2.35,1,3.86,1,1.37,0,2.54-.28,3.52-.82.98-.55,1.74-1.3,2.29-2.26l6.17,2.93c-.55,1.37-1.41,2.57-2.59,3.6-1.18,1.03-2.58,1.82-4.19,2.39-1.61.57-3.38.85-5.29.85Z"></path><path class="cls-2" d="m609.22,76.77v-28.07h7.2v6.73l-.51-.98c.62-2.36,1.63-3.97,3.06-4.81,1.42-.84,3.11-1.26,5.06-1.26h1.64v6.68h-2.42c-1.89,0-3.41.57-4.57,1.72-1.17,1.15-1.75,2.77-1.75,4.86v15.11h-7.71Z"></path><path class="cls-2" d="m630.35,46.19v-7.71h7.71v7.71h-7.71Zm0,30.58v-28.07h7.71v28.07h-7.71Z"></path><path class="cls-2" d="m658.77,77.39c-2.81,0-5.34-.64-7.58-1.93-2.25-1.28-4.03-3.04-5.35-5.27-1.32-2.23-1.98-4.73-1.98-7.51s.65-5.27,1.95-7.48c1.3-2.21,3.08-3.95,5.35-5.22,2.26-1.27,4.8-1.9,7.61-1.9,2.09,0,4.03.36,5.81,1.08,1.78.72,3.31,1.72,4.57,3.01,1.27,1.29,2.18,2.8,2.73,4.55l-6.68,2.88c-.48-1.4-1.29-2.52-2.44-3.34-1.15-.82-2.48-1.23-3.98-1.23-1.34,0-2.53.33-3.57.98-1.05.65-1.87,1.56-2.47,2.73-.6,1.17-.9,2.5-.9,4.01s.3,2.84.9,4.01c.6,1.17,1.42,2.07,2.47,2.72,1.05.65,2.24.98,3.57.98,1.54,0,2.88-.41,4.01-1.23,1.13-.82,1.94-1.94,2.42-3.34l6.68,2.93c-.51,1.64-1.41,3.12-2.67,4.42-1.27,1.3-2.79,2.32-4.57,3.06-1.78.74-3.73,1.11-5.86,1.11Z"></path><path class="cls-2" d="m686.38,77.39c-2.02,0-3.77-.33-5.24-.98-1.47-.65-2.61-1.59-3.39-2.8-.79-1.22-1.18-2.66-1.18-4.34,0-1.58.36-2.97,1.08-4.19.72-1.22,1.83-2.24,3.32-3.06s3.35-1.4,5.58-1.75l8.58-1.39v5.65l-7.2,1.28c-1.1.21-1.94.56-2.52,1.05-.58.5-.87,1.21-.87,2.13,0,.86.33,1.53.98,2.01.65.48,1.46.72,2.42.72,1.27,0,2.38-.27,3.34-.82.96-.55,1.7-1.29,2.24-2.24.53-.94.8-1.98.8-3.11v-7.3c0-1.06-.42-1.95-1.26-2.67-.84-.72-1.98-1.08-3.42-1.08s-2.58.38-3.62,1.13c-1.05.75-1.81,1.75-2.29,2.98l-6.17-2.93c.55-1.58,1.42-2.93,2.62-4.06,1.2-1.13,2.64-2,4.32-2.62,1.68-.62,3.51-.93,5.5-.93,2.36,0,4.45.43,6.27,1.28,1.82.86,3.23,2.05,4.24,3.57,1.01,1.53,1.52,3.3,1.52,5.32v18.51h-7.2v-4.52l1.75-.31c-.82,1.23-1.73,2.25-2.72,3.06-.99.81-2.11,1.41-3.34,1.8s-2.61.59-4.11.59Z"></path><path class="cls-2" d="m708.94,76.77v-28.07h7.2v5.55l-.41-1.23c.65-1.68,1.7-2.92,3.16-3.73,1.46-.8,3.16-1.21,5.11-1.21,2.12,0,3.98.45,5.58,1.34,1.59.89,2.83,2.13,3.73,3.73.89,1.59,1.34,3.45,1.34,5.58v18.04h-7.71v-16.4c0-1.1-.21-2.04-.64-2.83-.43-.79-1.03-1.4-1.8-1.85-.77-.44-1.67-.67-2.7-.67s-1.89.22-2.67.67c-.79.45-1.4,1.06-1.82,1.85-.43.79-.64,1.73-.64,2.83v16.4h-7.71Z"></path><path class="cls-1" d="m510.22,124.56v-38.29h14.65c2.64,0,4.98.46,7.02,1.39,2.04.93,3.64,2.3,4.81,4.11,1.16,1.82,1.75,4.06,1.75,6.73s-.6,4.82-1.8,6.66c-1.2,1.83-2.81,3.21-4.83,4.14l8.74,15.27h-8.94l-9.46-16.91,5.14,3.03h-9.1v13.88h-7.97Zm7.97-20.82h6.73c1.13,0,2.11-.22,2.93-.67s1.47-1.06,1.93-1.85c.46-.79.69-1.7.69-2.72s-.23-1.99-.69-2.78c-.46-.79-1.1-1.4-1.93-1.85-.82-.45-1.8-.67-2.93-.67h-6.73v10.54Z"></path><path class="cls-1" d="m557.2,125.17c-2.98,0-5.57-.66-7.76-1.98-2.19-1.32-3.89-3.09-5.09-5.32-1.2-2.23-1.8-4.69-1.8-7.4s.62-5.31,1.88-7.5c1.25-2.19,2.94-3.92,5.06-5.19,2.12-1.27,4.52-1.9,7.2-1.9,2.23,0,4.2.35,5.91,1.05,1.71.7,3.16,1.69,4.34,2.96,1.18,1.27,2.08,2.73,2.7,4.39.62,1.66.93,3.47.93,5.42,0,.55-.03,1.09-.08,1.62-.05.53-.15.98-.28,1.36h-21.02v-5.65h16.65l-3.65,2.67c.34-1.47.33-2.78-.05-3.93-.38-1.15-1.04-2.06-1.98-2.73-.94-.67-2.1-1-3.47-1s-2.48.33-3.44.98c-.96.65-1.68,1.61-2.16,2.88-.48,1.27-.67,2.81-.56,4.63-.14,1.58.05,2.96.56,4.16.51,1.2,1.3,2.13,2.36,2.8,1.06.67,2.35,1,3.86,1,1.37,0,2.54-.28,3.52-.82.98-.55,1.74-1.3,2.29-2.26l6.17,2.93c-.55,1.37-1.41,2.57-2.59,3.6-1.18,1.03-2.58,1.82-4.19,2.39-1.61.57-3.38.85-5.29.85Z"></path><path class="cls-1" d="m590.15,125.17c-2.81,0-5.34-.64-7.58-1.93-2.25-1.28-4.03-3.04-5.35-5.27-1.32-2.23-1.98-4.73-1.98-7.51s.65-5.27,1.95-7.48,3.08-3.95,5.35-5.22c2.26-1.27,4.8-1.9,7.61-1.9,2.09,0,4.03.36,5.81,1.08,1.78.72,3.31,1.72,4.57,3.01,1.27,1.29,2.18,2.8,2.73,4.55l-6.68,2.88c-.48-1.4-1.29-2.52-2.44-3.34-1.15-.82-2.48-1.23-3.98-1.23-1.34,0-2.53.33-3.57.98-1.05.65-1.87,1.56-2.47,2.73-.6,1.17-.9,2.5-.9,4.01s.3,2.84.9,4.01c.6,1.17,1.42,2.07,2.47,2.72,1.05.65,2.24.98,3.57.98,1.54,0,2.88-.41,4.01-1.23,1.13-.82,1.94-1.94,2.42-3.34l6.68,2.93c-.51,1.64-1.41,3.12-2.67,4.42-1.27,1.3-2.79,2.32-4.57,3.06-1.78.74-3.73,1.11-5.86,1.11Z"></path><path class="cls-1" d="m623,125.17c-2.77,0-5.3-.63-7.58-1.9-2.28-1.27-4.1-3.01-5.45-5.22-1.35-2.21-2.03-4.72-2.03-7.53s.68-5.36,2.03-7.55c1.35-2.19,3.17-3.92,5.45-5.19,2.28-1.27,4.81-1.9,7.58-1.9s5.29.63,7.56,1.9,4.07,3,5.42,5.19c1.35,2.19,2.03,4.71,2.03,7.55s-.68,5.32-2.03,7.53c-1.35,2.21-3.16,3.95-5.42,5.22s-4.78,1.9-7.56,1.9Zm0-6.94c1.4,0,2.63-.33,3.68-.98,1.05-.65,1.87-1.56,2.47-2.72.6-1.17.9-2.5.9-4.01s-.3-2.83-.9-3.98c-.6-1.15-1.42-2.05-2.47-2.72-1.05-.67-2.27-1-3.68-1s-2.64.33-3.7,1c-1.06.67-1.89,1.58-2.49,2.72-.6,1.15-.9,2.48-.9,3.98s.3,2.84.9,4.01c.6,1.17,1.43,2.07,2.49,2.72,1.06.65,2.29.98,3.7.98Z"></path><path class="cls-1" d="m652.09,124.56l-11.05-28.07h8.33l7.66,21.23h-3.19l7.66-21.23h8.33l-11.05,28.07h-6.68Z"></path><path class="cls-1" d="m687.51,125.17c-2.98,0-5.57-.66-7.76-1.98-2.19-1.32-3.89-3.09-5.09-5.32-1.2-2.23-1.8-4.69-1.8-7.4s.62-5.31,1.88-7.5c1.25-2.19,2.94-3.92,5.06-5.19,2.12-1.27,4.52-1.9,7.2-1.9,2.23,0,4.2.35,5.91,1.05,1.71.7,3.16,1.69,4.34,2.96,1.18,1.27,2.08,2.73,2.7,4.39.62,1.66.93,3.47.93,5.42,0,.55-.03,1.09-.08,1.62-.05.53-.15.98-.28,1.36h-21.02v-5.65h16.65l-3.65,2.67c.34-1.47.33-2.78-.05-3.93-.38-1.15-1.04-2.06-1.98-2.73-.94-.67-2.1-1-3.47-1s-2.48.33-3.44.98c-.96.65-1.68,1.61-2.16,2.88-.48,1.27-.67,2.81-.56,4.63-.14,1.58.05,2.96.56,4.16.51,1.2,1.3,2.13,2.36,2.8,1.06.67,2.35,1,3.86,1,1.37,0,2.54-.28,3.52-.82.98-.55,1.74-1.3,2.29-2.26l6.17,2.93c-.55,1.37-1.41,2.57-2.59,3.6-1.18,1.03-2.58,1.82-4.19,2.39-1.61.57-3.38.85-5.29.85Z"></path><path class="cls-1" d="m706.68,124.56v-28.07h7.2v6.73l-.51-.98c.62-2.36,1.63-3.97,3.06-4.81,1.42-.84,3.11-1.26,5.06-1.26h1.64v6.68h-2.42c-1.89,0-3.41.57-4.57,1.72s-1.75,2.77-1.75,4.86v15.11h-7.71Z"></path><path class="cls-1" d="m732.17,135.86c-.82,0-1.62-.07-2.39-.21-.77-.14-1.45-.36-2.03-.67v-6.32c.48.14,1.05.26,1.7.36.65.1,1.25.15,1.8.15,1.51,0,2.59-.35,3.24-1.05.65-.7,1.18-1.5,1.59-2.39l1.9-4.37-.1,6.43-12.34-31.3h8.28l8.17,22.26h-3.08l8.17-22.26h8.28l-12.03,30.69c-.75,1.92-1.68,3.53-2.77,4.83-1.1,1.3-2.34,2.27-3.73,2.9-1.39.63-2.94.95-4.65.95Z"></path><path class="cls-2" d="m528.47,172.34l12.95-38.29h10.59l12.95,38.29h-8.69l-2.57-7.81h-14.03l-2.57,7.81h-8.63Zm13.42-14.75h9.61l-5.86-18.09h2.16l-5.91,18.09Z"></path><path class="cls-2" d="m580.64,172.96c-3.08,0-5.76-.73-8.04-2.19-2.28-1.46-3.83-3.42-4.65-5.89l5.65-2.67c.72,1.51,1.7,2.69,2.93,3.55,1.23.86,2.6,1.28,4.11,1.28,1.1,0,1.94-.22,2.52-.67.58-.44.87-1.06.87-1.85,0-.41-.1-.76-.31-1.05s-.51-.56-.93-.8c-.41-.24-.93-.44-1.54-.62l-4.78-1.34c-2.3-.65-4.06-1.7-5.29-3.16-1.23-1.46-1.85-3.18-1.85-5.17,0-1.75.44-3.27,1.34-4.57.89-1.3,2.14-2.32,3.75-3.06,1.61-.74,3.46-1.11,5.55-1.11,2.74,0,5.15.64,7.22,1.93,2.07,1.28,3.54,3.09,4.39,5.42l-5.71,2.67c-.41-1.16-1.16-2.1-2.24-2.8-1.08-.7-2.31-1.05-3.68-1.05-.99,0-1.77.21-2.34.62-.56.41-.85.98-.85,1.7,0,.38.1.72.31,1.03s.54.58,1,.82c.46.24,1.04.46,1.72.67l4.47,1.34c2.33.69,4.11,1.72,5.34,3.11,1.24,1.39,1.85,3.09,1.85,5.11,0,1.75-.45,3.27-1.36,4.57s-2.17,2.32-3.78,3.06c-1.61.74-3.51,1.11-5.71,1.11Z"></path><path class="cls-2" d="m608.4,172.96c-3.08,0-5.76-.73-8.04-2.19-2.28-1.46-3.83-3.42-4.65-5.89l5.65-2.67c.72,1.51,1.7,2.69,2.93,3.55,1.23.86,2.6,1.28,4.11,1.28,1.1,0,1.94-.22,2.52-.67.58-.44.87-1.06.87-1.85,0-.41-.1-.76-.31-1.05s-.51-.56-.93-.8c-.41-.24-.93-.44-1.54-.62l-4.78-1.34c-2.3-.65-4.06-1.7-5.29-3.16-1.23-1.46-1.85-3.18-1.85-5.17,0-1.75.44-3.27,1.34-4.57.89-1.3,2.14-2.32,3.75-3.06,1.61-.74,3.46-1.11,5.55-1.11,2.74,0,5.15.64,7.22,1.93,2.07,1.28,3.54,3.09,4.39,5.42l-5.71,2.67c-.41-1.16-1.16-2.1-2.24-2.8-1.08-.7-2.31-1.05-3.68-1.05-.99,0-1.77.21-2.34.62-.56.41-.85.98-.85,1.7,0,.38.1.72.31,1.03s.54.58,1,.82c.46.24,1.04.46,1.72.67l4.47,1.34c2.33.69,4.11,1.72,5.34,3.11,1.24,1.39,1.85,3.09,1.85,5.11,0,1.75-.45,3.27-1.36,4.57s-2.17,2.32-3.78,3.06c-1.61.74-3.51,1.11-5.71,1.11Z"></path><path class="cls-2" d="m639.09,172.96c-2.77,0-5.3-.63-7.58-1.9-2.28-1.27-4.1-3.01-5.45-5.22-1.35-2.21-2.03-4.72-2.03-7.53s.68-5.36,2.03-7.55c1.35-2.19,3.17-3.92,5.45-5.19,2.28-1.27,4.81-1.9,7.58-1.9s5.29.63,7.56,1.9c2.26,1.27,4.07,3,5.42,5.19s2.03,4.71,2.03,7.55-.68,5.32-2.03,7.53-3.16,3.95-5.42,5.22c-2.26,1.27-4.78,1.9-7.56,1.9Zm0-6.94c1.4,0,2.63-.33,3.68-.98,1.05-.65,1.87-1.56,2.47-2.72.6-1.17.9-2.5.9-4.01s-.3-2.83-.9-3.98c-.6-1.15-1.42-2.05-2.47-2.72-1.05-.67-2.27-1-3.68-1s-2.64.33-3.7,1c-1.06.67-1.89,1.58-2.49,2.72-.6,1.15-.9,2.48-.9,3.98s.3,2.84.9,4.01c.6,1.17,1.43,2.07,2.49,2.72,1.06.65,2.29.98,3.7.98Z"></path><path class="cls-2" d="m673.68,172.96c-2.81,0-5.34-.64-7.58-1.93-2.25-1.28-4.03-3.04-5.35-5.27-1.32-2.23-1.98-4.73-1.98-7.51s.65-5.27,1.95-7.48,3.08-3.95,5.35-5.22,4.8-1.9,7.61-1.9c2.09,0,4.03.36,5.81,1.08,1.78.72,3.31,1.72,4.57,3.01,1.27,1.29,2.18,2.8,2.73,4.55l-6.68,2.88c-.48-1.4-1.29-2.52-2.44-3.34-1.15-.82-2.48-1.23-3.98-1.23-1.34,0-2.53.33-3.57.98-1.05.65-1.87,1.56-2.47,2.73-.6,1.17-.9,2.5-.9,4.01s.3,2.84.9,4.01c.6,1.17,1.42,2.07,2.47,2.72,1.05.65,2.24.98,3.57.98,1.54,0,2.88-.41,4.01-1.23,1.13-.82,1.94-1.94,2.42-3.34l6.68,2.93c-.51,1.64-1.41,3.12-2.67,4.42-1.27,1.3-2.79,2.32-4.57,3.06-1.78.74-3.73,1.11-5.86,1.11Z"></path><path class="cls-2" d="m692.6,141.76v-7.71h7.71v7.71h-7.71Zm0,30.58v-28.07h7.71v28.07h-7.71Z"></path><path class="cls-2" d="m715.93,172.96c-2.02,0-3.77-.33-5.24-.98-1.47-.65-2.61-1.59-3.39-2.8-.79-1.22-1.18-2.66-1.18-4.34,0-1.58.36-2.97,1.08-4.19.72-1.22,1.83-2.24,3.32-3.06s3.35-1.4,5.58-1.75l8.58-1.39v5.65l-7.2,1.28c-1.1.21-1.94.56-2.52,1.05-.58.5-.87,1.21-.87,2.13,0,.86.33,1.53.98,2.01.65.48,1.46.72,2.42.72,1.27,0,2.38-.27,3.34-.82.96-.55,1.7-1.29,2.24-2.24.53-.94.8-1.98.8-3.11v-7.3c0-1.06-.42-1.95-1.26-2.67-.84-.72-1.98-1.08-3.42-1.08s-2.58.38-3.62,1.13c-1.05.75-1.81,1.75-2.29,2.98l-6.17-2.93c.55-1.58,1.42-2.93,2.62-4.06,1.2-1.13,2.64-2,4.32-2.62,1.68-.62,3.51-.93,5.5-.93,2.36,0,4.45.43,6.27,1.28,1.82.86,3.23,2.05,4.24,3.57,1.01,1.53,1.52,3.3,1.52,5.32v18.51h-7.2v-4.52l1.75-.31c-.82,1.23-1.73,2.25-2.72,3.06-.99.81-2.11,1.41-3.34,1.8s-2.61.59-4.11.59Z"></path><path class="cls-2" d="m751.5,172.65c-3.39,0-6.02-.92-7.89-2.75-1.87-1.83-2.8-4.39-2.8-7.68v-11.26h-4.73v-6.68h.26c1.44,0,2.54-.36,3.32-1.08.77-.72,1.16-1.8,1.16-3.24v-2.06h7.71v6.37h6.58v6.68h-6.58v10.74c0,.96.17,1.76.51,2.39.34.63.87,1.11,1.59,1.41.72.31,1.61.46,2.67.46.24,0,.51-.02.82-.05.31-.03.63-.07.98-.1v6.53c-.51.07-1.1.14-1.75.21-.65.07-1.27.1-1.85.1Z"></path><path class="cls-2" d="m760.91,141.76v-7.71h7.71v7.71h-7.71Zm0,30.58v-28.07h7.71v28.07h-7.71Z"></path><path class="cls-2" d="m789.49,172.96c-2.77,0-5.3-.63-7.58-1.9-2.28-1.27-4.1-3.01-5.45-5.22-1.35-2.21-2.03-4.72-2.03-7.53s.68-5.36,2.03-7.55c1.35-2.19,3.17-3.92,5.45-5.19,2.28-1.27,4.81-1.9,7.58-1.9s5.29.63,7.56,1.9,4.07,3,5.42,5.19,2.03,4.71,2.03,7.55-.68,5.32-2.03,7.53-3.16,3.95-5.42,5.22-4.78,1.9-7.56,1.9Zm0-6.94c1.4,0,2.63-.33,3.68-.98,1.05-.65,1.87-1.56,2.47-2.72.6-1.17.9-2.5.9-4.01s-.3-2.83-.9-3.98c-.6-1.15-1.42-2.05-2.47-2.72s-2.27-1-3.68-1-2.64.33-3.7,1c-1.06.67-1.89,1.58-2.49,2.72-.6,1.15-.9,2.48-.9,3.98s.3,2.84.9,4.01c.6,1.17,1.43,2.07,2.49,2.72,1.06.65,2.29.98,3.7.98Z"></path><path class="cls-2" d="m810.31,172.34v-28.07h7.2v5.55l-.41-1.23c.65-1.68,1.7-2.92,3.16-3.73,1.46-.8,3.16-1.21,5.11-1.21,2.12,0,3.98.45,5.58,1.34,1.59.89,2.83,2.13,3.73,3.73.89,1.59,1.34,3.45,1.34,5.58v18.04h-7.71v-16.4c0-1.1-.21-2.04-.64-2.83-.43-.79-1.03-1.4-1.8-1.85-.77-.44-1.67-.67-2.7-.67s-1.89.22-2.67.67c-.79.45-1.4,1.06-1.82,1.85-.43.79-.64,1.73-.64,2.83v16.4h-7.71Z"></path><path class="cls-2" d="m427.43,5.61c-1.49-3.41-4.86-5.61-8.58-5.61h-43.82l-64.58,129.26-18.84,43.26h46.49l61.88-126.86,55.27,126.86h45.27L427.43,5.61Z"></path><path class="cls-1" d="m293.78,104.17c9.51-4.05,17.3-9.89,23.2-17.39,6.73-8.57,10.14-19.06,10.14-31.18s-3.08-21.99-9.17-30.32c-6.03-8.25-14.48-14.62-25.1-18.91-10.45-4.22-22.59-6.37-36.06-6.37h-81.37v127.16l6.14-.46c.72,15.27-5.05,30.54-4.81,45.82h37.11v-61.33h37.85l39.9,61.33h46.49l-44.33-68.35Zm-11.63-36.97c-2.28,3.4-5.41,5.99-9.58,7.91-4.22,1.95-9.36,2.94-15.25,2.94h-44.58v-44.92h44.58c5.9,0,11.03.99,15.25,2.94,4.12,1.9,7.35,4.53,9.6,7.82,2.24,3.28,3.33,7.1,3.33,11.69s-1.1,8.25-3.35,11.61Z"></path><path class="cls-2" d="m189.23,127.16L125.5,0h-43.85c-3.7,0-7.04,2.19-8.53,5.58L0,172.52h45l55.51-126.86,66.34,126.83,47.01.03-24.63-45.37Z"></path></svg>